<svg width="191" height="60" viewBox="0 0 191 60" fill="none" xmlns="http://www.w3.org/2000/svg">
<path d="M88.216 43L97.972 17.368H105.316L114.964 43H107.476L100.312 21.22H102.904L95.56 43H88.216ZM94.552 38.68V33.064H108.88V38.68H94.552ZM127.501 43.432C125.245 43.432 123.277 42.976 121.597 42.064C119.917 41.128 118.609 39.844 117.673 38.212C116.737 36.58 116.269 34.708 116.269 32.596V17.368H123.469V33.244C123.469 34.06 123.649 34.756 124.009 35.332C124.369 35.908 124.849 36.352 125.449 36.664C126.073 36.952 126.757 37.096 127.501 37.096C128.269 37.096 128.941 36.952 129.517 36.664C130.117 36.352 130.585 35.92 130.921 35.368C131.257 34.792 131.425 34.096 131.425 33.28V17.368H138.661V32.632C138.661 34.744 138.193 36.616 137.257 38.248C136.345 39.856 135.049 41.128 133.369 42.064C131.713 42.976 129.757 43.432 127.501 43.432ZM148.269 32.776V27.808H152.625C153.609 27.808 154.353 27.568 154.857 27.088C155.385 26.608 155.649 25.972 155.649 25.18C155.649 24.388 155.385 23.752 154.857 23.272C154.353 22.792 153.609 22.552 152.625 22.552H148.269V17.368H153.777C155.553 17.368 157.113 17.692 158.457 18.34C159.801 18.988 160.857 19.888 161.625 21.04C162.393 22.192 162.777 23.536 162.777 25.072C162.777 26.608 162.381 27.952 161.589 29.104C160.821 30.256 159.741 31.156 158.349 31.804C156.957 32.452 155.313 32.776 153.417 32.776H148.269ZM142.437 43V17.368H149.637V43H142.437ZM156.261 43L149.277 32.056L155.757 30.652L164.433 43H156.261ZM163.521 43L173.277 17.368H180.621L190.269 43H182.781L175.617 21.22H178.209L170.865 43H163.521ZM169.857 38.68V33.064H184.185V38.68H169.857Z" fill="#F5C400"/>
<path d="M30 60C46.5685 60 60 46.5685 60 30C60 13.4315 46.5685 0 30 0C13.4315 0 0 13.4315 0 30C0 46.5685 13.4315 60 30 60Z" fill="#F5C400"/>
<path d="M30 6C43.2548 6 54 16.7452 54 30C54 43.2548 43.2548 54 30 54C16.7452 54 6 43.2548 6 30C6 16.7452 16.7452 6 30 6Z" stroke="white" stroke-width="4"/>
<path d="M30 13C39.3888 13 47 20.6112 47 30C47 39.3888 39.3888 47 30 47C20.6112 47 13 39.3888 13 30C13 20.6112 20.6112 13 30 13Z" stroke="white" stroke-width="2"/>
<rect x="25" y="25" width="10" height="10" rx="5" fill="white"/>
<rect x="28" y="29" width="30" height="4" rx="2" transform="rotate(-30 28 29)" fill="white"/>
</svg>
