<svg width="60" height="60" viewBox="0 0 60 60" fill="none" xmlns="http://www.w3.org/2000/svg">
<path d="M30 60C46.5685 60 60 46.5685 60 30C60 13.4315 46.5685 0 30 0C13.4315 0 0 13.4315 0 30C0 46.5685 13.4315 60 30 60Z" fill="#F5C400"/>
<path d="M30 6C43.2548 6 54 16.7452 54 30C54 43.2548 43.2548 54 30 54C16.7452 54 6 43.2548 6 30C6 16.7452 16.7452 6 30 6Z" stroke="white" stroke-width="4"/>
<path d="M30 13C39.3888 13 47 20.6112 47 30C47 39.3888 39.3888 47 30 47C20.6112 47 13 39.3888 13 30C13 20.6112 20.6112 13 30 13Z" stroke="white" stroke-width="2"/>
<rect x="25" y="25" width="10" height="10" rx="5" fill="white"/>
<rect x="28" y="29" width="30" height="4" rx="2" transform="rotate(-30 28 29)" fill="white"/>
</svg>
